<svg id="Layer_1" data-name="Layer 1" xmlns="http://www.w3.org/2000/svg" viewBox="0 0 793 613"><title>starfish</title><rect x="0.5" y="0.5" width="792" height="612" style="fill:#e0f3fd;stroke:#fff;stroke-miterlimit:10"/><path d="M136,201.56a14.45,14.45,0,0,0,1.92,8.16l10.56,6.72,14.88,6.24,13.92,10.08,22.08,15.36,34.08,23.52,25,16.8,21.12,13,9.12,5.1L302.12,312l-11,17.28-13.92,26.88-11,28.32L254.6,420a171.59,171.59,0,0,0-6.72,40.32s-2.69,38.06,7.44,58.32L257,522a19.31,19.31,0,0,0,5.28,3.6,15.61,15.61,0,0,0,8.88,1.68c4.77-.69,7.74-4,9.36-5.76,2.66-2.93,3.62-5.55,5.52-10.32,5-12.47,3.39-7.09,6.72-16.08,4-10.9,3.79-11.87,7-20.64a248.75,248.75,0,0,1,9.84-23.28,223.64,223.64,0,0,1,10.56-19.92c10.94-18.09,22.79-30,31-38.16a244,244,0,0,1,23.28-20.4c2.56,4.11,6.08,9.49,10.56,15.6,5.42,7.39,9.94,12.7,13.44,16.8,5.46,6.39,9.72,10.9,13.92,15.36,7.92,8.4,14.06,14.36,15.84,16.08,4.55,4.4,7.84,7.39,11,10.32,19.08,17.45,19.27,18.14,25.92,24a243.8,243.8,0,0,0,39.12,29c14.57,8.56,23.17,11.29,29.76,12.72,17.8,3.88,25.86-.56,28.08-1.92a26.29,26.29,0,0,0,7-6.24,10.35,10.35,0,0,0,1.44-6.24c-.61-6-6.68-8.76-7-8.88a107.4,107.4,0,0,1-16.32-11.76c-4.24-3.71-6.36-6.16-18.48-20.4-15.4-18.1-17-20.05-19.68-24a143.89,143.89,0,0,1-11.28-19.92c-3.1-4.37-7.47-10.83-12.24-19-4.2-7.16-7.36-13.57-13.68-26.4-8.43-17.11-11.7-25-13-28.08-2.08-5.11-3.69-9.42-4.8-12.48l-.72-5a132.18,132.18,0,0,0,23-2.88c10.84-2.34,18.77-5.48,26.64-8.64,5.51-2.21,12.09-5.08,24.72-11.52,17-8.66,30.69-16.52,40.08-22.08,17.45-10.33,26.18-15.5,37.68-24a296,296,0,0,0,27.36-22.8c2.59-2.45,8.88-6.94,14.64-14.88,6.93-9.56,6.57-14.36,6.24-16.32A13.92,13.92,0,0,0,648,190c-4.83-3.2-10.75-1.49-14.4-.48a27.46,27.46,0,0,0-6.72,2.88l-28.08,11q-12,3.93-24.72,7.68c-10.06,3-18,5-33.84,9.12-27,7-40.65,10.49-46.56,11.52a273.41,273.41,0,0,1-38.16,4.08c-9,.29-16.61.07-22.32-.24-.07-4.15,0-10,.48-17,.41-5.7,1.48-16.89,6.72-38.88.82-3.43,4.09-17,10.32-37,3.31-10.61,7.88-24.36,13.92-40.32a42.65,42.65,0,0,0,3.6-12c1.58-10.86.09-15.2-1-17a16.52,16.52,0,0,0-3.36-4.08c-4.41-3.9-9.65-4.35-12.48-4.56-8.88-.65-15.74,3.28-18.72,5s-6.36,4.28-14.4,13.92a233.3,233.3,0,0,0-14.16,18.72c-9.27,14-15.8,23.85-24,38.88a431.79,431.79,0,0,0-21.36,45.12c-6,14.83-10.4,28.2-13.68,39.36l-.72,5.28c-1.53,0-3.77-.06-6.48-.24a121.78,121.78,0,0,1-20.16-3.12c-6.18-1.38-15.1-3.23-27.36-5.28-3.88-1.11-9.85-2.91-17-5.52-11-4-14.07-6-24.72-10.08-4.72-1.83-11.79-4.1-25.92-8.64C209.49,194,202.76,191.81,196,190a172.14,172.14,0,0,0-27.36-5c-6.73-.67-11.66-.73-17.28,1-3.22,1-8.57,2.66-12.24,7.68A14.85,14.85,0,0,0,136,201.56Z" transform="translate(0.5 0.96)" style="fill:#ffd694"/><path d="M365.84,281.6c-.06-2.66-2.65-5-19.8-13-19.87-9.18-35.51-14.81-36.36-15.12-26.92-9.63-25-8.3-37.08-13C266,238,255,233.22,233,223.64c-5.87-2.56-17.16-7.5-32-13.32-2.2-.86-6.23-2.42-11.52-4.32-16.49-5.91-23.69-7.31-27.36-7.92s-6.79-.93-8.64-1.08c-2.47-.17-6.59-.31-6.84.72s4,3,5.76,3.84a56.33,56.33,0,0,0,12,3.84c6.12,1.38,11.76,4.28,23,10.08,4.54,2.33,8.73,4.72,10.56,5.76,2.46,1.4,4.83,2.79,7.27,4.27,8.57,5.18,16,10.13,18.17,11.57,12,8,22.56,14,28.32,17.28,9.4,5.37,9,4.71,25,13.44,17.67,9.66,17.1,9.88,25.92,14.4,17.94,9.2,27.1,13.79,36.48,13.44C352.14,295.16,366,287.86,365.84,281.6Z" transform="translate(0.5 0.96)" style="fill:#ffe2b4"/><path d="M394,291.56c3.11-2-.51-7.86.24-26.16a222.64,222.64,0,0,1,2.64-24.12c.63-4.18,1.17-7.1,2.16-12.48,2-10.71,2.95-16.06,4.68-22.32,1.56-5.64,1.65-4.44,5.16-15.6,2.91-9.25,3.3-11.33,6-19.8,2.06-6.47,3.69-11.07,6.48-19,3.11-8.8,4.67-13.2,7.08-19.32,2.87-7.28,2.11-4.73,8.28-19.56a107,107,0,0,1,4.68-10.08c1.76-3.29,3.4-5.91,4.56-7.68a7.31,7.31,0,0,0,.6-8.28A7.41,7.41,0,0,0,438.92,84c-1.43.3-2.6,1.08-6.32,5.57a87.08,87.08,0,0,0-5.68,7.39c-5.7,8.89-9.47,14.54-14.4,25A417.23,417.23,0,0,0,394.76,166c-4.58,13.19-7.65,23.58-9.6,30.24-1,3.37-3.81,13.1-7.68,28.32-10.19,40.08-9.15,45.52-7.2,49.92C375.69,286.71,389.62,294.36,394,291.56Z" transform="translate(0.5 0.96)" style="fill:#ffe2b4"/><path d="M458.36,71.36a11.07,11.07,0,0,1,4,3.24c4.43,6,.8,15.26-4,28.44-3.23,9-6,18.1-9.36,27-6.7,17.52-10.06,26.29-12.6,34.56-6.93,22.53-9,42.26-11.16,62.64-1,9.1-1.5,16.61-1.8,21.6a39.23,39.23,0,0,0,4,1.08c7.6,1.67,13.45.64,20.52-.36,12.06-1.7,7.81-.52,18.36-2.16,6.46-1,18.26-3,34.56-7.2,20.23-5.17,35.42-10.55,41-12.6,10.08-3.67,21.77-8.38,34.56-14.4" transform="translate(0.5 0.96)" style="fill:none;stroke:#fff;stroke-miterlimit:10;stroke-width:0.25px"/><path d="M642.14,200.78c-.52-1.09-1.63-3.15-2.88-3.06-.92.07-1.52,1.27-1.77,1.76-1,1.93-3,4.78-7.41,8.86A172.4,172.4,0,0,1,606,228c-6.76,4.55-15.8,9.77-43.92,21.6-18.47,7.77-33.59,14.13-55.44,20.88a531.33,531.33,0,0,1-51.84,13c-14.34,2.87-31.79,5.78-51.84,7.92a12.94,12.94,0,0,0,0,7.44,12.54,12.54,0,0,0,8.64,8.4,11.92,11.92,0,0,0,7.2-.72c9.36-3.73,17.57-.54,56.88-10.8,22.79-5.95,38.27-11.78,66.24-22.32,37.6-14.17,48.48-20.6,56.16-25.92,6.13-4.25,12.73-9.79,25.92-20.88,21.88-18.39,8.46-9.44,14.4-14.4a11.16,11.16,0,0,0,3.42-4.5,11.64,11.64,0,0,0,.36-6.84" transform="translate(0.5 0.96)" style="fill:#ffe2b4"/><path d="M544.76,286a101.66,101.66,0,0,1-12,7.2,118.53,118.53,0,0,1-15.84,6.48c-3.47,1.2-7.38,2.46-22.8,6.72-15,4.13-20.14,5.39-25.2,6.48-4.12.89-8.4,1.73-13.68,2.4-4.27.54-7.9.81-10.56,1,.34,1.57.81,3.71,1.44,6.24s2.42,9.57,5.52,18.48c.59,1.71,3.32,9.48,7.92,19.68a203.31,203.31,0,0,0,10.56,20.88,215.75,215.75,0,0,0,14.4,21.12c4.22,5.66,8,10.29,10.8,13.68l3.6,5.52" transform="translate(0.5 0.96)" style="fill:none;stroke:#603913;stroke-linecap:round;stroke-miterlimit:10;stroke-width:0.25px"/><path d="M381.8,323.48a51.24,51.24,0,0,1,6,4.8,54.2,54.2,0,0,1,7.92,9.36c5.45,7.82,9.3,13.89,11.52,17.28,4.55,7,5,7,10.8,15.36,8.79,12.74,10,16.11,18.72,29.28,4.66,7.08,8,11.74,14.4,20.64,11.7,16.29,17.55,24.44,26.4,34.56a227.39,227.39,0,0,0,19.68,20.16,161.27,161.27,0,0,0,15.84,12.72c14.91,10.44,24.45,13.15,27.36,13.92a67.12,67.12,0,0,0,7,1.44,5.09,5.09,0,0,0,2.88-1.44,5.33,5.33,0,0,0,1.2-5c-.65-2.34-3-3.51-4.56-4.32-4.17-2.16-7.81-5.35-12.18-7.07-6.48-2.56-20.39-13.51-39.66-35.41a425.83,425.83,0,0,1-42.48-57.6c-15.2-24.65-22.76-37-28.08-50.4-7.21-18.15-9.4-30.92-18-33.12C398.24,306.48,388.73,315.35,381.8,323.48Z" transform="translate(0.5 0.96)" style="fill:#ffe2b4"/><path d="M340.52,307.64c-4,.91-5.66,3.68-13,13.44-16.55,22.12-15,17.54-22.08,28.32-8.11,12.4-12.6,22.28-17.76,33.6a269.36,269.36,0,0,0-14.4,37.44c-3.29,11.1-6.71,22.64-8.16,38.4-.85,9.21-.89,20.38-1,42.72,0,3.84,0,7,0,9.12a6.48,6.48,0,0,0,3.36,4.32,6.7,6.7,0,0,0,6.24-.48,44.63,44.63,0,0,0,5.76-17.76,142.86,142.86,0,0,1,3.36-17.28c1.33-5.13,2.44-8.25,5.28-16.8,4.36-13.13,4-12.43,6.72-20.64,2.32-6.89,6.49-19.29,10.56-29.28,3.25-8,9.84-24.16,20.16-38.4,20.93-28.88,42.44-29.43,42.24-43.68C367.71,318.21,351.05,305.22,340.52,307.64Z" transform="translate(0.5 0.96)" style="fill:#ffe2b4"/><circle cx="443.74" cy="359.48" r="1.8" style="fill:#603913;stroke:#231f20;stroke-miterlimit:10;stroke-width:0.25px"/><circle cx="460.9" cy="383.96" r="1.8" style="fill:#603913;stroke:#231f20;stroke-miterlimit:10;stroke-width:0.25px"/><circle cx="472.66" cy="394.28" r="1.8" style="fill:#603913;stroke:#231f20;stroke-miterlimit:10;stroke-width:0.25px"/><circle cx="472.66" cy="406.6" r="1.8" style="fill:#603913;stroke:#231f20;stroke-miterlimit:10;stroke-width:0.25px"/><circle cx="481.06" cy="410.2" r="1.8" style="fill:#603913;stroke:#231f20;stroke-miterlimit:10;stroke-width:0.25px"/><circle cx="440.14" cy="336.44" r="1.8" style="fill:#603913;stroke:#231f20;stroke-miterlimit:10;stroke-width:0.25px"/><circle cx="443.74" cy="330.92" r="1.8" style="fill:#603913;stroke:#231f20;stroke-miterlimit:10;stroke-width:0.25px"/><circle cx="432.1" cy="325.88" r="1.8" style="fill:#603913;stroke:#231f20;stroke-miterlimit:10;stroke-width:0.25px"/><circle cx="435.7" cy="317.48" r="1.8" style="fill:#603913;stroke:#231f20;stroke-miterlimit:10;stroke-width:0.25px"/><circle cx="425.14" cy="315.68" r="1.8" style="fill:#603913;stroke:#231f20;stroke-miterlimit:10;stroke-width:0.25px"/><circle cx="460.9" cy="309.24" r="1.8" style="fill:#603913;stroke:#231f20;stroke-miterlimit:10;stroke-width:0.25px"/><circle cx="500.44" cy="299.04" r="1.8" style="fill:#603913;stroke:#231f20;stroke-miterlimit:10;stroke-width:0.25px"/><circle cx="514.3" cy="296.62" r="1.8" style="fill:#603913;stroke:#231f20;stroke-miterlimit:10;stroke-width:0.25px"/><circle cx="509.74" cy="293.1" r="1.8" style="fill:#603913;stroke:#231f20;stroke-miterlimit:10;stroke-width:0.25px"/><circle cx="441.94" cy="311.11" r="1.8" style="fill:#603913;stroke:#231f20;stroke-miterlimit:10;stroke-width:0.25px"/><circle cx="524.73" cy="288.8" r="1.8" style="fill:#603913;stroke:#231f20;stroke-miterlimit:10;stroke-width:0.25px"/><circle cx="531.02" cy="288.8" r="1.8" style="fill:#603913;stroke:#231f20;stroke-miterlimit:10;stroke-width:0.25px"/><circle cx="541.82" cy="281.68" r="1.8" style="fill:#603913;stroke:#231f20;stroke-miterlimit:10;stroke-width:0.25px"/><circle cx="455.74" cy="288.8" r="1.8" style="fill:#603913;stroke:#231f20;stroke-miterlimit:10;stroke-width:0.25px"/><circle cx="441.94" cy="293.1" r="1.8" style="fill:#603913;stroke:#231f20;stroke-miterlimit:10;stroke-width:0.25px"/><circle cx="432.1" cy="296.62" r="1.8" style="fill:#603913;stroke:#231f20;stroke-miterlimit:10;stroke-width:0.25px"/><circle cx="410.61" cy="302.64" r="1.8" style="fill:#603913;stroke:#231f20;stroke-miterlimit:10;stroke-width:0.25px"/><circle cx="421.54" cy="299.04" r="1.8" style="fill:#603913;stroke:#231f20;stroke-miterlimit:10;stroke-width:0.25px"/><circle cx="507.94" cy="281.68" r="1.8" style="fill:#603913;stroke:#231f20;stroke-miterlimit:10;stroke-width:0.25px"/><circle cx="500.44" cy="285.28" r="1.8" style="fill:#603913;stroke:#231f20;stroke-miterlimit:10;stroke-width:0.25px"/><circle cx="504.04" cy="278.08" r="1.8" style="fill:#603913;stroke:#231f20;stroke-miterlimit:10;stroke-width:0.25px"/><circle cx="492.58" cy="287.96" r="1.8" style="fill:#603913;stroke:#231f20;stroke-miterlimit:10;stroke-width:0.25px"/><circle cx="490.78" cy="283.48" r="1.8" style="fill:#603913;stroke:#231f20;stroke-miterlimit:10;stroke-width:0.25px"/><circle cx="481.66" cy="288.8" r="1.8" style="fill:#603913;stroke:#231f20;stroke-miterlimit:10;stroke-width:0.25px"/><circle cx="472.66" cy="288.8" r="1.8" style="fill:#603913;stroke:#231f20;stroke-miterlimit:10;stroke-width:0.25px"/><circle cx="463.94" cy="293.1" r="1.8" style="fill:#603913;stroke:#231f20;stroke-miterlimit:10;stroke-width:0.25px"/><circle cx="546.94" cy="264.02" r="1.8" style="fill:#603913;stroke:#231f20;stroke-miterlimit:10;stroke-width:0.25px"/><circle cx="555.1" cy="265.82" r="1.8" style="fill:#603913;stroke:#231f20;stroke-miterlimit:10;stroke-width:0.25px"/><circle cx="538.78" cy="265.82" r="1.8" style="fill:#603913;stroke:#231f20;stroke-miterlimit:10;stroke-width:0.25px"/><circle cx="532.82" cy="271.28" r="1.8" style="fill:#603913;stroke:#231f20;stroke-miterlimit:10;stroke-width:0.25px"/><circle cx="524.73" cy="276.28" r="1.8" style="fill:none;stroke:#231f20;stroke-miterlimit:10;stroke-width:0.25px"/><circle cx="517.9" cy="276.28" r="1.8" style="fill:#603913;stroke:#231f20;stroke-miterlimit:10;stroke-width:0.25px"/><circle cx="507.1" cy="255.34" r="1.8" style="fill:#603913;stroke:#231f20;stroke-miterlimit:10;stroke-width:0.25px"/><circle cx="493.42" cy="262.22" r="1.8" style="fill:#603913;stroke:#231f20;stroke-miterlimit:10;stroke-width:0.25px"/><circle cx="480.31" cy="260.42" r="1.8" style="fill:#603913;stroke:#231f20;stroke-miterlimit:10;stroke-width:0.25px"/><circle cx="457.54" cy="268.64" r="1.8" style="fill:#603913;stroke:#231f20;stroke-miterlimit:10;stroke-width:0.25px"/><circle cx="462.14" cy="276.28" r="1.8" style="fill:#603913;stroke:#231f20;stroke-miterlimit:10;stroke-width:0.25px"/><circle cx="514.3" cy="260.42" r="1.8" style="fill:#603913;stroke:#231f20;stroke-miterlimit:10;stroke-width:0.25px"/><circle cx="500.71" cy="264.02" r="1.8" style="fill:#603913;stroke:#231f20;stroke-miterlimit:10;stroke-width:0.25px"/><circle cx="485.26" cy="269.42" r="1.8" style="fill:#603913;stroke:#231f20;stroke-miterlimit:10;stroke-width:0.25px"/><circle cx="520.06" cy="251.04" r="1.8" style="fill:#603913;stroke:#231f20;stroke-miterlimit:10;stroke-width:0.25px"/><circle cx="536.98" cy="251.04" r="1.8" style="fill:#603913;stroke:#231f20;stroke-miterlimit:10;stroke-width:0.25px"/><circle cx="528.26" cy="255.34" r="1.8" style="fill:#603913;stroke:#231f20;stroke-miterlimit:10;stroke-width:0.25px"/><circle cx="542.38" cy="239.62" r="1.8" style="fill:#603913;stroke:#231f20;stroke-miterlimit:10;stroke-width:0.25px"/><circle cx="559.3" cy="239.62" r="1.8" style="fill:#603913;stroke:#231f20;stroke-miterlimit:10;stroke-width:0.25px"/><circle cx="550.58" cy="243.92" r="1.8" style="fill:#603913;stroke:#231f20;stroke-miterlimit:10;stroke-width:0.25px"/><circle cx="291.96" cy="421.72" r="1.8" style="fill:#a97c50;stroke:#231f20;stroke-miterlimit:10;stroke-width:0.25px"/><circle cx="295.4" cy="406.8" r="1.8" style="fill:#a97c50;stroke:#231f20;stroke-miterlimit:10;stroke-width:0.25px"/><circle cx="305.16" cy="397.86" r="1.8" style="fill:#a97c50;stroke:#231f20;stroke-miterlimit:10;stroke-width:0.25px"/><circle cx="313.37" cy="375.09" r="1.8" style="fill:#a97c50;stroke:#231f20;stroke-miterlimit:10;stroke-width:0.25px"/><circle cx="304.55" cy="373.75" r="1.8" style="fill:#a97c50;stroke:#231f20;stroke-miterlimit:10;stroke-width:0.25px"/><circle cx="283.45" cy="424.02" r="1.8" style="fill:#a97c50;stroke:#231f20;stroke-miterlimit:10;stroke-width:0.25px"/><circle cx="289.36" cy="411.26" r="1.8" style="fill:#a97c50;stroke:#231f20;stroke-miterlimit:10;stroke-width:0.25px"/><circle cx="295.07" cy="395.92" r="1.8" style="fill:#a97c50;stroke:#231f20;stroke-miterlimit:10;stroke-width:0.25px"/><circle cx="287" cy="434.44" r="1.8" style="fill:#a97c50;stroke:#231f20;stroke-miterlimit:10;stroke-width:0.25px"/><circle cx="276.19" cy="447.46" r="1.8" style="fill:#a97c50;stroke:#231f20;stroke-miterlimit:10;stroke-width:0.25px"/><circle cx="278.45" cy="438.01" r="1.8" style="fill:#a97c50;stroke:#231f20;stroke-miterlimit:10;stroke-width:0.25px"/><circle cx="281.53" cy="458.91" r="1.8" style="fill:#a97c50;stroke:#231f20;stroke-miterlimit:10;stroke-width:0.25px"/><circle cx="270.73" cy="471.93" r="1.8" style="fill:#a97c50;stroke:#231f20;stroke-miterlimit:10;stroke-width:0.25px"/><circle cx="272.99" cy="462.48" r="1.8" style="fill:#a97c50;stroke:#231f20;stroke-miterlimit:10;stroke-width:0.25px"/><circle cx="341.64" cy="388.72" r="1.8" style="fill:#a97c50;stroke:#231f20;stroke-miterlimit:10;stroke-width:0.25px"/><circle cx="348.22" cy="375.85" r="1.8" style="fill:#a97c50;stroke:#231f20;stroke-miterlimit:10;stroke-width:0.25px"/><circle cx="352.59" cy="366.35" r="1.8" style="fill:#a97c50;stroke:#231f20;stroke-miterlimit:10;stroke-width:0.25px"/><circle cx="363.32" cy="346.78" r="1.8" style="fill:#a97c50;stroke:#231f20;stroke-miterlimit:10;stroke-width:0.25px"/><circle cx="358.25" cy="357.11" r="1.8" style="fill:#a97c50;stroke:#231f20;stroke-miterlimit:10;stroke-width:0.25px"/><circle cx="310.21" cy="431" r="1.8" style="fill:#a97c50;stroke:#231f20;stroke-miterlimit:10;stroke-width:0.25px"/><circle cx="312.89" cy="423.12" r="1.8" style="fill:#a97c50;stroke:#231f20;stroke-miterlimit:10;stroke-width:0.25px"/><circle cx="315.51" cy="430.73" r="1.8" style="fill:#a97c50;stroke:#231f20;stroke-miterlimit:10;stroke-width:0.25px"/><circle cx="316.47" cy="415.63" r="1.8" style="fill:#a97c50;stroke:#231f20;stroke-miterlimit:10;stroke-width:0.25px"/><circle cx="320.93" cy="417.48" r="1.8" style="fill:#a97c50;stroke:#231f20;stroke-miterlimit:10;stroke-width:0.25px"/><circle cx="323.51" cy="407.24" r="1.8" style="fill:#a97c50;stroke:#231f20;stroke-miterlimit:10;stroke-width:0.25px"/><circle cx="329.8" cy="400.81" r="1.8" style="fill:#a97c50;stroke:#231f20;stroke-miterlimit:10;stroke-width:0.25px"/><circle cx="332.83" cy="391.57" r="1.8" style="fill:#a97c50;stroke:#231f20;stroke-miterlimit:10;stroke-width:0.25px"/><circle cx="295.55" cy="471.22" r="1.8" style="fill:#a97c50;stroke:#231f20;stroke-miterlimit:10;stroke-width:0.25px"/><circle cx="288.56" cy="475.79" r="1.8" style="fill:#a97c50;stroke:#231f20;stroke-miterlimit:10;stroke-width:0.25px"/><circle cx="299.97" cy="464.13" r="1.8" style="fill:#a97c50;stroke:#231f20;stroke-miterlimit:10;stroke-width:0.25px"/><circle cx="300.24" cy="456.05" r="1.8" style="fill:#a97c50;stroke:#231f20;stroke-miterlimit:10;stroke-width:0.25px"/><circle cx="302.33" cy="446.77" r="1.8" style="fill:#a97c50;stroke:#231f20;stroke-miterlimit:10;stroke-width:0.25px"/><circle cx="307.1" cy="441.89" r="1.8" style="fill:#a97c50;stroke:#231f20;stroke-miterlimit:10;stroke-width:0.25px"/><circle cx="442.55" cy="431.59" r="1.8" style="fill:#603913;stroke:#231f20;stroke-miterlimit:10;stroke-width:0.25px"/><circle cx="452.89" cy="441.69" r="1.8" style="fill:#603913;stroke:#231f20;stroke-miterlimit:10;stroke-width:0.25px"/><circle cx="460.67" cy="448.67" r="1.8" style="fill:#603913;stroke:#231f20;stroke-miterlimit:10;stroke-width:0.25px"/><circle cx="476.18" cy="464.72" r="1.8" style="fill:#603913;stroke:#231f20;stroke-miterlimit:10;stroke-width:0.25px"/><circle cx="467.82" cy="456.81" r="1.8" style="fill:#603913;stroke:#231f20;stroke-miterlimit:10;stroke-width:0.25px"/><circle cx="411.48" cy="389.04" r="1.8" style="fill:#a97c50;stroke:#231f20;stroke-miterlimit:10;stroke-width:0.25px"/><circle cx="418.21" cy="393.93" r="1.8" style="fill:#a97c50;stroke:#231f20;stroke-miterlimit:10;stroke-width:0.25px"/><circle cx="410.17" cy="394.19" r="1.8" style="fill:#a97c50;stroke:#231f20;stroke-miterlimit:10;stroke-width:0.25px"/><circle cx="424.31" cy="399.57" r="1.8" style="fill:#a97c50;stroke:#231f20;stroke-miterlimit:10;stroke-width:0.25px"/><circle cx="421.22" cy="403.29" r="1.8" style="fill:#a97c50;stroke:#231f20;stroke-miterlimit:10;stroke-width:0.25px"/><circle cx="430.23" cy="408.78" r="1.8" style="fill:#a97c50;stroke:#231f20;stroke-miterlimit:10;stroke-width:0.25px"/><circle cx="434.51" cy="416.7" r="1.8" style="fill:#a97c50;stroke:#231f20;stroke-miterlimit:10;stroke-width:0.25px"/><circle cx="442.44" cy="422.33" r="1.8" style="fill:#a97c50;stroke:#231f20;stroke-miterlimit:10;stroke-width:0.25px"/><circle cx="377.41" cy="363.12" r="1.8" style="fill:#a97c50;stroke:#231f20;stroke-miterlimit:10;stroke-width:0.25px"/><circle cx="375.12" cy="355.09" r="1.8" style="fill:#a97c50;stroke:#231f20;stroke-miterlimit:10;stroke-width:0.25px"/><circle cx="382.87" cy="369.45" r="1.8" style="fill:#a97c50;stroke:#231f20;stroke-miterlimit:10;stroke-width:0.25px"/><circle cx="390.51" cy="372.1" r="1.8" style="fill:#a97c50;stroke:#231f20;stroke-miterlimit:10;stroke-width:0.25px"/><circle cx="398.75" cy="376.84" r="1.8" style="fill:#a97c50;stroke:#231f20;stroke-miterlimit:10;stroke-width:0.25px"/><circle cx="402" cy="382.85" r="1.8" style="fill:#a97c50;stroke:#231f20;stroke-miterlimit:10;stroke-width:0.25px"/><circle cx="409.97" cy="218.37" r="1.8" style="fill:#603913;stroke:#231f20;stroke-miterlimit:10;stroke-width:0.25px"/><circle cx="406.7" cy="232.45" r="1.8" style="fill:#603913;stroke:#231f20;stroke-miterlimit:10;stroke-width:0.25px"/><circle cx="404.75" cy="242.71" r="1.8" style="fill:#603913;stroke:#231f20;stroke-miterlimit:10;stroke-width:0.25px"/><circle cx="399.07" cy="264.3" r="1.8" style="fill:#603913;stroke:#231f20;stroke-miterlimit:10;stroke-width:0.25px"/><circle cx="401.5" cy="253.05" r="1.8" style="fill:#603913;stroke:#231f20;stroke-miterlimit:10;stroke-width:0.25px"/><circle cx="430.24" cy="169.74" r="1.8" style="fill:#603913;stroke:#231f20;stroke-miterlimit:10;stroke-width:0.25px"/><circle cx="429.55" cy="178.03" r="1.8" style="fill:#603913;stroke:#231f20;stroke-miterlimit:10;stroke-width:0.25px"/><circle cx="425.16" cy="171.28" r="1.8" style="fill:#603913;stroke:#231f20;stroke-miterlimit:10;stroke-width:0.25px"/><circle cx="427.89" cy="186.17" r="1.8" style="fill:#603913;stroke:#231f20;stroke-miterlimit:10;stroke-width:0.25px"/><circle cx="423.11" cy="185.45" r="1.8" style="fill:#603913;stroke:#231f20;stroke-miterlimit:10;stroke-width:0.25px"/><circle cx="423.09" cy="196.01" r="1.8" style="fill:#603913;stroke:#231f20;stroke-miterlimit:10;stroke-width:0.25px"/><circle cx="418.53" cy="203.77" r="1.8" style="fill:#603913;stroke:#231f20;stroke-miterlimit:10;stroke-width:0.25px"/><circle cx="417.83" cy="213.47" r="1.8" style="fill:#603913;stroke:#231f20;stroke-miterlimit:10;stroke-width:0.25px"/><circle cx="434.74" cy="127.17" r="1.8" style="fill:#603913;stroke:#231f20;stroke-miterlimit:10;stroke-width:0.25px"/><circle cx="440.43" cy="121.04" r="1.8" style="fill:#603913;stroke:#231f20;stroke-miterlimit:10;stroke-width:0.25px"/><circle cx="432.17" cy="135.12" r="1.8" style="fill:#603913;stroke:#231f20;stroke-miterlimit:10;stroke-width:0.25px"/><circle cx="433.86" cy="143.02" r="1.8" style="fill:#603913;stroke:#231f20;stroke-miterlimit:10;stroke-width:0.25px"/><circle cx="434.08" cy="152.53" r="1.8" style="fill:#603913;stroke:#231f20;stroke-miterlimit:10;stroke-width:0.25px"/><circle cx="430.62" cy="158.42" r="1.8" style="fill:#603913;stroke:#231f20;stroke-miterlimit:10;stroke-width:0.25px"/><circle cx="389.79" cy="216.27" r="1.61" style="fill:#603913;stroke:#231f20;stroke-miterlimit:10;stroke-width:0.25px"/><circle cx="386.54" cy="228.77" r="1.61" style="fill:#603913;stroke:#231f20;stroke-miterlimit:10;stroke-width:0.25px"/><circle cx="384.57" cy="237.9" r="1.61" style="fill:#603913;stroke:#231f20;stroke-miterlimit:10;stroke-width:0.25px"/><circle cx="379.01" cy="257.05" r="1.61" style="fill:#603913;stroke:#231f20;stroke-miterlimit:10;stroke-width:0.25px"/><circle cx="381.43" cy="247.05" r="1.61" style="fill:#603913;stroke:#231f20;stroke-miterlimit:10;stroke-width:0.25px"/><circle cx="409" cy="173.31" r="1.61" style="fill:#603913;stroke:#231f20;stroke-miterlimit:10;stroke-width:0.25px"/><circle cx="408.2" cy="180.7" r="1.61" style="fill:#603913;stroke:#231f20;stroke-miterlimit:10;stroke-width:0.25px"/><circle cx="404.43" cy="174.57" r="1.61" style="fill:#603913;stroke:#231f20;stroke-miterlimit:10;stroke-width:0.25px"/><circle cx="406.52" cy="187.92" r="1.61" style="fill:#603913;stroke:#231f20;stroke-miterlimit:10;stroke-width:0.25px"/><circle cx="402.28" cy="187.18" r="1.61" style="fill:#603913;stroke:#231f20;stroke-miterlimit:10;stroke-width:0.25px"/><circle cx="402.01" cy="196.61" r="1.61" style="fill:#603913;stroke:#231f20;stroke-miterlimit:10;stroke-width:0.25px"/><circle cx="397.77" cy="203.44" r="1.61" style="fill:#603913;stroke:#231f20;stroke-miterlimit:10;stroke-width:0.25px"/><circle cx="396.92" cy="212.08" r="1.61" style="fill:#603913;stroke:#231f20;stroke-miterlimit:10;stroke-width:0.25px"/><circle cx="413.99" cy="135.39" r="1.61" style="fill:#603913;stroke:#231f20;stroke-miterlimit:10;stroke-width:0.25px"/><circle cx="419.2" cy="130.04" r="1.61" style="fill:#603913;stroke:#231f20;stroke-miterlimit:10;stroke-width:0.25px"/><circle cx="411.51" cy="142.43" r="1.61" style="fill:#603913;stroke:#231f20;stroke-miterlimit:10;stroke-width:0.25px"/><circle cx="412.84" cy="149.53" r="1.61" style="fill:#603913;stroke:#231f20;stroke-miterlimit:10;stroke-width:0.25px"/><circle cx="412.82" cy="158.02" r="1.61" style="fill:#603913;stroke:#231f20;stroke-miterlimit:10;stroke-width:0.25px"/><circle cx="409.6" cy="163.2" r="1.61" style="fill:#603913;stroke:#231f20;stroke-miterlimit:10;stroke-width:0.25px"/><circle cx="293.87" cy="255.99" r="1.8" style="fill:#a97c50;stroke:#231f20;stroke-miterlimit:10;stroke-width:0.25px"/><circle cx="278.58" cy="255.03" r="1.8" style="fill:#a97c50;stroke:#231f20;stroke-miterlimit:10;stroke-width:0.25px"/><circle cx="268.16" cy="246.86" r="1.8" style="fill:#a97c50;stroke:#231f20;stroke-miterlimit:10;stroke-width:0.25px"/><circle cx="297.52" cy="264.01" r="1.8" style="fill:#a97c50;stroke:#231f20;stroke-miterlimit:10;stroke-width:0.25px"/><circle cx="283.96" cy="260.26" r="1.8" style="fill:#a97c50;stroke:#231f20;stroke-miterlimit:10;stroke-width:0.25px"/><path d="M266.5,257.73a1.8,1.8,0,1,1,2.46-.65,1.8,1.8,0,0,1-2.46.65" transform="translate(0.5 0.96)" style="fill:#a97c50;stroke:#231f20;stroke-miterlimit:10;stroke-width:0.25px"/><circle cx="307.22" cy="258.82" r="1.8" style="fill:#a97c50;stroke:#231f20;stroke-miterlimit:10;stroke-width:0.25px"/><circle cx="335.89" cy="332.62" r="1.8" style="fill:#a97c50;stroke:#231f20;stroke-miterlimit:10;stroke-width:0.25px"/><circle cx="330.37" cy="346.9" r="1.8" style="fill:#a97c50;stroke:#231f20;stroke-miterlimit:10;stroke-width:0.25px"/><circle cx="319.43" cy="354.37" r="1.8" style="fill:#a97c50;stroke:#231f20;stroke-miterlimit:10;stroke-width:0.25px"/><circle cx="344.64" cy="331.56" r="1.8" style="fill:#a97c50;stroke:#231f20;stroke-miterlimit:10;stroke-width:0.25px"/><circle cx="336.98" cy="343.35" r="1.8" style="fill:#a97c50;stroke:#231f20;stroke-miterlimit:10;stroke-width:0.25px"/><path d="M329.85,358.09a1.8,1.8,0,1,1,.13-2.54,1.79,1.79,0,0,1-.13,2.54" transform="translate(0.5 0.96)" style="fill:#a97c50;stroke:#231f20;stroke-miterlimit:10;stroke-width:0.25px"/><circle cx="342.62" cy="320.74" r="1.8" style="fill:#a97c50;stroke:#231f20;stroke-miterlimit:10;stroke-width:0.25px"/><circle cx="339.29" cy="277.97" r="1.8" style="fill:#a97c50;stroke:#231f20;stroke-miterlimit:10;stroke-width:0.25px"/><circle cx="324.02" cy="279.17" r="1.8" style="fill:#a97c50;stroke:#231f20;stroke-miterlimit:10;stroke-width:0.25px"/><circle cx="312.56" cy="272.55" r="1.8" style="fill:#a97c50;stroke:#231f20;stroke-miterlimit:10;stroke-width:0.25px"/><circle cx="344.03" cy="285.39" r="1.8" style="fill:none;stroke:#231f20;stroke-miterlimit:10;stroke-width:0.25px"/><circle cx="330.08" cy="283.59" r="1.8" style="fill:#a97c50;stroke:#231f20;stroke-miterlimit:10;stroke-width:0.25px"/><path d="M312.56,283.46a1.8,1.8,0,1,1,2.35-1,1.8,1.8,0,0,1-2.35,1" transform="translate(0.5 0.96)" style="fill:#a97c50;stroke:#231f20;stroke-miterlimit:10;stroke-width:0.25px"/><circle cx="352.91" cy="278.88" r="1.8" style="fill:none;stroke:#231f20;stroke-miterlimit:10;stroke-width:0.25px"/><circle cx="354.79" cy="249.14" r="1.8" style="fill:#603913;stroke:#231f20;stroke-miterlimit:10;stroke-width:0.25px"/><circle cx="339.53" cy="250.41" r="1.8" style="fill:#603913;stroke:#231f20;stroke-miterlimit:10;stroke-width:0.25px"/><circle cx="328.03" cy="243.84" r="1.8" style="fill:#603913;stroke:#231f20;stroke-miterlimit:10;stroke-width:0.25px"/><circle cx="359.57" cy="256.54" r="1.8" style="fill:#603913;stroke:#231f20;stroke-miterlimit:10;stroke-width:0.25px"/><circle cx="345.61" cy="254.8" r="1.8" style="fill:#603913;stroke:#231f20;stroke-miterlimit:10;stroke-width:0.25px"/><path d="M328.09,254.75a1.8,1.8,0,1,1,2.35-1,1.8,1.8,0,0,1-2.35,1" transform="translate(0.5 0.96)" style="fill:#603913;stroke:#231f20;stroke-miterlimit:10;stroke-width:0.25px"/><circle cx="368.41" cy="249.99" r="1.8" style="fill:#603913;stroke:#231f20;stroke-miterlimit:10;stroke-width:0.25px"/><circle cx="368.41" cy="300.84" r="1.8" style="fill:#a97c50;stroke:#231f20;stroke-miterlimit:10;stroke-width:0.25px"/><circle cx="378.11" cy="305.15" r="2.5" style="fill:#a97c50;stroke:#231f20;stroke-miterlimit:10;stroke-width:0.25px"/><circle cx="371.57" cy="313.17" r="2.06" style="fill:#a97c50;stroke:#231f20;stroke-miterlimit:10;stroke-width:0.25px"/><circle cx="374.44" cy="320.74" r="1.8" style="fill:#a97c50;stroke:#231f20;stroke-miterlimit:10;stroke-width:0.25px"/><circle cx="383.95" cy="312.76" r="1.65" style="fill:#a97c50;stroke:#231f20;stroke-miterlimit:10;stroke-width:0.25px"/><circle cx="389.73" cy="302.09" r="3.05" style="fill:#a97c50;stroke:#231f20;stroke-miterlimit:10;stroke-width:0.25px"/><circle cx="377.16" cy="295.15" r="2.05" style="fill:#a97c50;stroke:#231f20;stroke-miterlimit:10;stroke-width:0.25px"/><circle cx="406.05" cy="320.78" r="2.76" style="fill:#603913;stroke:#231f20;stroke-miterlimit:10;stroke-width:0.25px"/><circle cx="402.03" cy="332.09" r="2.33" style="fill:#603913;stroke:#231f20;stroke-miterlimit:10;stroke-width:0.25px"/><circle cx="412.33" cy="345.07" r="3.52" style="fill:#603913;stroke:#231f20;stroke-miterlimit:10;stroke-width:0.25px"/><circle cx="412.36" cy="332.67" r="1.75" style="fill:#603913;stroke:#231f20;stroke-miterlimit:10;stroke-width:0.25px"/><circle cx="422.38" cy="358.67" r="2.76" style="fill:#603913;stroke:#231f20;stroke-miterlimit:10;stroke-width:0.25px"/><circle cx="428.86" cy="373.17" r="1.92" style="fill:#603913;stroke:#231f20;stroke-miterlimit:10;stroke-width:0.25px"/><circle cx="435.65" cy="383.98" r="2.93" style="fill:#603913;stroke:#231f20;stroke-miterlimit:10;stroke-width:0.25px"/><circle cx="444.8" cy="395.61" r="4.04" style="fill:#603913;stroke:#231f20;stroke-miterlimit:10;stroke-width:0.25px"/><circle cx="454.71" cy="410.22" r="3.61" style="fill:#603913;stroke:#231f20;stroke-miterlimit:10;stroke-width:0.25px"/><circle cx="462.48" cy="423.91" r="3.38" style="fill:#603913;stroke:#231f20;stroke-miterlimit:10;stroke-width:0.25px"/><circle cx="473.25" cy="436.17" r="3.64" style="fill:#603913;stroke:#231f20;stroke-miterlimit:10;stroke-width:0.25px"/><circle cx="485.92" cy="449.83" r="3.06" style="fill:#603913;stroke:#231f20;stroke-miterlimit:10;stroke-width:0.25px"/><circle cx="500.26" cy="469.17" r="5.04" style="fill:#603913;stroke:#231f20;stroke-miterlimit:10;stroke-width:0.25px"/><circle cx="560.02" cy="497.12" r="1.8" style="fill:none;stroke:#231f20;stroke-miterlimit:10;stroke-width:0.25px"/><circle cx="549.13" cy="509.63" r="0.99" style="fill:none;stroke:#231f20;stroke-miterlimit:10;stroke-width:0.25px"/><circle cx="293.36" cy="345.54" r="2.19" style="fill:#a97c50;stroke:#231f20;stroke-miterlimit:10;stroke-width:0.25px"/><circle cx="288.43" cy="354.24" r="1.67" style="fill:#a97c50;stroke:#231f20;stroke-miterlimit:10;stroke-width:0.25px"/><circle cx="284.12" cy="363.89" r="2.46" style="fill:#a97c50;stroke:#231f20;stroke-miterlimit:10;stroke-width:0.25px"/><circle cx="278.92" cy="376.78" r="2.73" style="fill:#a97c50;stroke:#231f20;stroke-miterlimit:10;stroke-width:0.25px"/><circle cx="276.42" cy="386.68" r="2.03" style="fill:#a97c50;stroke:#231f20;stroke-miterlimit:10;stroke-width:0.25px"/><circle cx="270.91" cy="403.46" r="1.98" style="fill:#a97c50;stroke:#231f20;stroke-miterlimit:10;stroke-width:0.25px"/><circle cx="267.12" cy="418.1" r="2.43" style="fill:#a97c50;stroke:#231f20;stroke-miterlimit:10;stroke-width:0.25px"/><circle cx="259.47" cy="431.69" r="2.76" style="fill:#a97c50;stroke:#231f20;stroke-miterlimit:10;stroke-width:0.25px"/><ellipse cx="258.09" cy="452.74" rx="1.38" ry="4.07" style="fill:#a97c50;stroke:#231f20;stroke-miterlimit:10;stroke-width:0.25px"/><circle cx="256" cy="467.55" r="1.62" style="fill:#a97c50;stroke:#231f20;stroke-miterlimit:10;stroke-width:0.25px"/><circle cx="256.93" cy="486.35" r="2.55" style="fill:#a97c50;stroke:#231f20;stroke-miterlimit:10;stroke-width:0.25px"/><circle cx="259.42" cy="497.12" r="1.8" style="fill:#a97c50;stroke:#231f20;stroke-miterlimit:10;stroke-width:0.25px"/><circle cx="423.1" cy="274.87" r="1.79" style="fill:#603913;stroke:#231f20;stroke-miterlimit:10;stroke-width:0.25px"/><circle cx="432.93" cy="264" r="3.38" style="fill:#603913;stroke:#231f20;stroke-miterlimit:10;stroke-width:0.25px"/><circle cx="418.07" cy="268.28" r="2.47" style="fill:#603913;stroke:#231f20;stroke-miterlimit:10;stroke-width:0.25px"/><circle cx="410.89" cy="279.48" r="2.39" style="fill:#603913;stroke:#231f20;stroke-miterlimit:10;stroke-width:0.25px"/><circle cx="442.03" cy="272.88" r="3.4" style="fill:#603913;stroke:#231f20;stroke-miterlimit:10;stroke-width:0.25px"/><circle cx="273.69" cy="229.67" r="2.5" style="fill:#603913;stroke:#231f20;stroke-miterlimit:10;stroke-width:0.25px"/><circle cx="300.46" cy="234.74" r="2.29" style="fill:#603913;stroke:#231f20;stroke-miterlimit:10;stroke-width:0.25px"/><circle cx="308.86" cy="245.74" r="1.9" style="fill:#603913;stroke:#231f20;stroke-miterlimit:10;stroke-width:0.25px"/><circle cx="316.31" cy="236.69" r="1.96" style="fill:#603913;stroke:#231f20;stroke-miterlimit:10;stroke-width:0.25px"/><circle cx="290.54" cy="239.93" r="2.11" style="fill:#603913;stroke:#231f20;stroke-miterlimit:10;stroke-width:0.25px"/><circle cx="282.5" cy="229.42" r="2.25" style="fill:#603913;stroke:#231f20;stroke-miterlimit:10;stroke-width:0.25px"/><ellipse cx="256.86" cy="219.03" rx="5.36" ry="1.14" style="fill:#603913;stroke:#231f20;stroke-miterlimit:10;stroke-width:0.25px"/><circle cx="244.81" cy="216.36" r="2.67" style="fill:#603913;stroke:#231f20;stroke-miterlimit:10;stroke-width:0.25px"/><circle cx="227.49" cy="207.12" r="3.35" style="fill:#603913;stroke:#231f20;stroke-miterlimit:10;stroke-width:0.25px"/><circle cx="195.25" cy="197.64" r="1.04" style="fill:#603913;stroke:#231f20;stroke-miterlimit:10;stroke-width:0.25px"/><circle cx="187.49" cy="196.44" r="2.23" style="fill:#603913;stroke:#231f20;stroke-miterlimit:10;stroke-width:0.25px"/><circle cx="208.66" cy="218.37" r="1.8" style="fill:#a97c50;stroke:#231f20;stroke-miterlimit:10;stroke-width:0.25px"/><circle cx="222.22" cy="231.73" r="4.56" style="fill:#a97c50;stroke:#231f20;stroke-miterlimit:10;stroke-width:0.25px"/><circle cx="234.18" cy="238.08" r="3.34" style="fill:#a97c50;stroke:#231f20;stroke-miterlimit:10;stroke-width:0.25px"/><circle cx="246.35" cy="241.17" r="1.55" style="fill:#a97c50;stroke:#231f20;stroke-miterlimit:10;stroke-width:0.25px"/><circle cx="210.41" cy="242.2" r="3.55" style="fill:#a97c50;stroke:#231f20;stroke-miterlimit:10;stroke-width:0.25px"/><circle cx="232.08" cy="255.84" r="4.59" style="fill:#a97c50;stroke:#231f20;stroke-miterlimit:10;stroke-width:0.25px"/><circle cx="244.61" cy="268.28" r="2.47" style="fill:#a97c50;stroke:#231f20;stroke-miterlimit:10;stroke-width:0.25px"/><circle cx="257.55" cy="277.52" r="3.17" style="fill:#a97c50;stroke:#231f20;stroke-miterlimit:10;stroke-width:0.25px"/><circle cx="274.91" cy="288.62" r="6.74" style="fill:#a97c50;stroke:#231f20;stroke-miterlimit:10;stroke-width:0.25px"/><circle cx="290.54" cy="297.26" r="2.11" style="fill:#a97c50;stroke:#231f20;stroke-miterlimit:10;stroke-width:0.25px"/><circle cx="303.54" cy="302.93" r="3.57" style="fill:#a97c50;stroke:#231f20;stroke-miterlimit:10;stroke-width:0.25px"/><circle cx="179.67" cy="221.72" r="2.69" style="fill:#a97c50;stroke:#231f20;stroke-miterlimit:10;stroke-width:0.25px"/><path d="M189.44,329.12c2.3.4,3.44.6,4,1.44,1.06,1.72-.83,4.68-2.16,6.12-.86.93-3.56,3.86-6.84,2.88a5.73,5.73,0,0,1-1.08-10.44C184.78,328.3,186.33,328.58,189.44,329.12Z" transform="translate(0.5 0.96)" style="fill:#fff;stroke:#fff;stroke-miterlimit:10"/><circle cx="170.68" cy="318.38" r="1.62" style="fill:#fff;stroke:#fff;stroke-miterlimit:10"/><circle cx="182.36" cy="321.44" r="1.44" style="fill:#fff;stroke:#fff;stroke-miterlimit:10"/><circle cx="153.3" cy="342.6" r="1.88" style="fill:#fff;stroke:#fff;stroke-miterlimit:10"/><circle cx="162.94" cy="361.04" r="1.08" style="fill:#fff;stroke:#fff;stroke-miterlimit:10"/><circle cx="178.6" cy="359.42" r="1.62" style="fill:#fff;stroke:#fff;stroke-miterlimit:10"/><circle cx="187.42" cy="355.88" r="2.16" style="fill:#fff;stroke:#fff;stroke-miterlimit:10"/><circle cx="143.32" cy="509.18" r="2.34" style="fill:#fff;stroke:#fff;stroke-miterlimit:10"/><ellipse cx="125.72" cy="495.44" rx="3.06" ry="6.12" transform="translate(-383.63 532.69) rotate(-79.83)" style="fill:#fff;stroke:#fff;stroke-miterlimit:10"/><path d="M304.28,163.64a5.29,5.29,0,0,1,4.08.72c.78.4,3.23,1.65,3.12,3.36-.09,1.42-1.89,2.28-2.64,2.64-.54.26-3.52,1.69-5.76,0-.11-.08-2.11-1.65-1.68-3.84A4.2,4.2,0,0,1,304.28,163.64Z" transform="translate(0.5 0.96)" style="fill:#fff;stroke:#fff;stroke-miterlimit:10"/><path d="M278.6,166.28c1.21,1.66,1.36,4.33.24,5.76-.61.78-1.1.55-3.36,1.68a38.76,38.76,0,0,0-4.56,2.88c-3,2.07-2.56,2-3.36,2.4-2.59,1.27-7,1.67-8.88-.72-1.33-1.68-.87-4-.72-4.8.63-3.18,3.18-5,4.8-6.24a15.75,15.75,0,0,1,4.08-2.16C269.87,164,276.2,163,278.6,166.28Z" transform="translate(0.5 0.96)" style="fill:#fff;stroke:#fff;stroke-miterlimit:10"/><path d="M260.36,80.6c.69-.34,1.83-.79,7.68-.48s8.89.5,11,1.92c1.09.72,4.15,2.75,4.32,6.24s-2.93,6-3.84,6.72c-1.91,1.54-2.93,1.34-6.72,2.88-5.69,2.31-5.5,3.62-8.64,4.32-3.32.74-8.82.46-11-2.88s.11-8.29,2.16-12.48C256.62,84.2,257.79,81.89,260.36,80.6Z" transform="translate(0.5 0.96)" style="fill:#fff;stroke:#fff;stroke-miterlimit:10"/><path d="M303.56,99.32c1,1.53,1.51,4,.48,5.28s-2.48.49-5.76,1.44c-3,.88-3,1.85-5.28,2.4-3,.73-7.48.11-8.64-2.4-1.25-2.71,1.77-6.78,4.8-8.64C293.92,94.47,301.1,95.5,303.56,99.32Z" transform="translate(0.5 0.96)" style="fill:#fff;stroke:#fff;stroke-miterlimit:10"/><path d="M310.64,79.28c.72.72,1.14.44,2.88,1.56s1.7,1.63,2.88,2.4a8.2,8.2,0,0,0,6.72.84,5.44,5.44,0,0,0,3.48-2.4c1-2,0-4.19-.6-5.4a11.41,11.41,0,0,0-4.8-4.92c-1.76-1-3.93-2.35-6.6-1.8a6.53,6.53,0,0,0-4.2,2.76C309,74.57,309.14,77.78,310.64,79.28Z" transform="translate(0.5 0.96)" style="fill:#fff;stroke:#fff;stroke-miterlimit:10"/><path d="M164.63,122.51c-.29.73-.86,1.84-5.6,5.29s-7.23,5.2-9.9,5.34c-1.35.07-5.15.27-7.74-2.63s-2-7-1.78-8.22c.39-2.54,1.32-3,3.16-6.75,2.76-5.59,1.69-6.6,3.63-9.2s6.5-6,10.57-4.52,5.78,7.21,7.14,12.12C165,117,165.71,119.77,164.63,122.51Z" transform="translate(0.5 0.96)" style="fill:#fff;stroke:#fff;stroke-miterlimit:10"/><path d="M118,133.79c-1.84-.7-4-2.47-4.1-4.25-.11-1.62,1.57-2,3.44-4.89,1.72-2.68,1-3.51,2.38-5.42,1.8-2.52,5.71-4.84,8.38-3.41,2.88,1.54,3.41,7,2.39,10.49C128.88,131.85,122.59,135.52,118,133.79Z" transform="translate(0.5 0.96)" style="fill:#fff;stroke:#fff;stroke-miterlimit:10"/><path d="M126.68,155.53c-1.06-.16-1.19.35-3.33.49s-2.46-.33-3.92-.24a7.48,7.48,0,0,0-5.79,3.54,5.45,5.45,0,0,0-1,4.27c.59,2.33,3,3.58,4.28,4.27a12.07,12.07,0,0,0,7.18,1.19c2.11-.21,4.69-.47,6.38-2.63a6.48,6.48,0,0,0,1.29-5C131.3,158.53,128.9,155.87,126.68,155.53Z" transform="translate(0.5 0.96)" style="fill:#fff;stroke:#fff;stroke-miterlimit:10"/><path d="M591.25,115.47c.15-.92.53-2.36,5-7.88s6.86-8.37,9.79-9.47c1.5-.55,5.68-2.11,9.23.23s3.78,7.17,3.84,8.58c.15,3-.78,3.83-2,8.66-1.8,7.24-.38,8-1.94,11.58-1.66,3.79-5.87,9-10.74,8.78s-8.06-6-10.71-11.06C592.1,121.73,590.67,118.92,591.25,115.47Z" transform="translate(0.5 0.96)" style="fill:#fff;stroke:#fff;stroke-miterlimit:10"/><path d="M640.56,86.46c2.21.13,5,1.37,5.53,3.31.49,1.78-1.29,2.79-2.71,6.69-1.31,3.6-.35,4.29-1.42,6.9-1.43,3.45-5.25,7.43-8.55,6.76-3.55-.71-5.38-6.59-5-10.9C628.89,92.45,635.06,86.14,640.56,86.46Z" transform="translate(0.5 0.96)" style="fill:#fff;stroke:#fff;stroke-miterlimit:10"/><path d="M626,65.16c1.23-.19,1.25-.81,3.6-1.71s2.82-.5,4.42-1.11a10,10,0,0,0,5.63-6c.39-1.14,1.1-3.2.14-5.14-1.19-2.39-4.13-3-5.73-3.27a13.77,13.77,0,0,0-8.27,1.19c-2.3,1-5.12,2.17-6.5,5.19a8,8,0,0,0-.29,6.1C620.14,63.43,623.4,65.56,626,65.16Z" transform="translate(0.5 0.96)" style="fill:#fff;stroke:#fff;stroke-miterlimit:10"/><path d="M662,360.7c-.16.75-.51,1.92-4.35,6.34s-5.87,6.71-8.31,7.52c-1.24.42-4.72,1.59-7.58-.43s-2.91-6-2.93-7.16c0-2.45.75-3.13,1.87-7.07,1.67-5.91.52-6.57,1.91-9.47,1.46-3.07,5.07-7.24,9.06-6.93s6.47,5.19,8.51,9.38C661.41,355.53,662.51,357.88,662,360.7Z" transform="translate(0.5 0.96)" style="fill:#fff;stroke:#fff;stroke-miterlimit:10"/><path d="M620.6,383.22c-1.81-.16-4.07-1.26-4.45-2.87s1.13-2.25,2.41-5.42c1.17-2.93.4-3.53,1.35-5.64,1.27-2.8,4.52-6,7.21-5.34,2.91.69,4.25,5.57,3.86,9.11C630.36,378.61,625.12,383.64,620.6,383.22Z" transform="translate(0.5 0.96)" style="fill:#fff;stroke:#fff;stroke-miterlimit:10"/><path d="M632,401.14c-1,.12-1,.63-3,1.31s-2.33.33-3.67.79a8.19,8.19,0,0,0-4.79,4.78,5.39,5.39,0,0,0-.25,4.22c.91,2,3.31,2.55,4.62,2.85a11.28,11.28,0,0,0,6.83-.76c1.92-.74,4.27-1.64,5.48-4.09a6.5,6.5,0,0,0,.41-5C636.78,402.71,634.15,400.88,632,401.14Z" transform="translate(0.5 0.96)" style="fill:#fff;stroke:#fff;stroke-miterlimit:10"/><path d="M192.14,331.77c2.29.41,3.44.61,4,1.44,1.06,1.72-.83,4.69-2.16,6.12-.86.94-3.56,3.86-6.84,2.88a5.74,5.74,0,0,1-4-5,5.82,5.82,0,0,1,2.88-5.4C187.48,331,189,331.23,192.14,331.77Z" transform="translate(0.5 0.96)" style="fill:#00aeef"/><circle cx="173.38" cy="321.04" r="1.62" style="fill:#00aeef"/><circle cx="185.06" cy="324.1" r="1.44" style="fill:#00aeef"/><circle cx="156" cy="345.25" r="1.88" style="fill:#00aeef"/><circle cx="165.64" cy="363.7" r="1.08" style="fill:#00aeef"/><circle cx="181.3" cy="362.08" r="1.62" style="fill:#00aeef"/><circle cx="190.12" cy="358.54" r="2.16" style="fill:#00aeef"/><circle cx="146.02" cy="511.84" r="2.34" style="fill:#00aeef"/><ellipse cx="128.42" cy="498.09" rx="3.06" ry="6.12" transform="translate(-384.02 537.53) rotate(-79.83)" style="fill:#00aeef"/><path d="M307,166.29a5.3,5.3,0,0,1,4.08.72c.78.4,3.23,1.66,3.12,3.36-.09,1.42-1.9,2.29-2.64,2.64-.54.26-3.52,1.7-5.76,0-.11-.08-2.11-1.64-1.68-3.84A4.19,4.19,0,0,1,307,166.29Z" transform="translate(0.5 0.96)" style="fill:#00aeef"/><path d="M281.3,168.93c1.21,1.66,1.36,4.33.24,5.76-.61.78-1.1.56-3.36,1.68a40.16,40.16,0,0,0-4.56,2.88c-3,2.08-2.56,2-3.36,2.4-2.59,1.27-7,1.68-8.88-.72-1.34-1.68-.87-4-.72-4.8.63-3.18,3.18-5,4.8-6.24a15.75,15.75,0,0,1,4.08-2.16C272.57,166.69,278.9,165.64,281.3,168.93Z" transform="translate(0.5 0.96)" style="fill:#00aeef"/><path d="M263.06,83.25c.69-.34,1.83-.79,7.68-.48s8.89.5,11,1.92c1.09.73,4.15,2.75,4.32,6.24s-2.93,6-3.84,6.72c-1.91,1.54-2.93,1.34-6.72,2.88-5.69,2.32-5.5,3.63-8.64,4.32-3.32.74-8.82.46-11-2.88S256,93.68,258,89.49C259.32,86.85,260.49,84.54,263.06,83.25Z" transform="translate(0.5 0.96)" style="fill:#00aeef"/><path d="M306.26,102c1,1.53,1.51,4,.48,5.28s-2.48.5-5.76,1.44c-3,.88-3,1.85-5.28,2.4-3,.73-7.48.11-8.64-2.4-1.25-2.7,1.77-6.77,4.8-8.64C296.62,97.12,303.8,98.16,306.26,102Z" transform="translate(0.5 0.96)" style="fill:#00aeef"/><path d="M313.34,81.93c.72.72,1.14.44,2.88,1.56s1.7,1.63,2.88,2.4a8.2,8.2,0,0,0,6.72.84,5.4,5.4,0,0,0,3.48-2.4c1-2,0-4.18-.6-5.4A11.41,11.41,0,0,0,323.9,74c-1.76-1.05-3.93-2.34-6.6-1.8A6.57,6.57,0,0,0,313.1,75C311.67,77.23,311.84,80.43,313.34,81.93Z" transform="translate(0.5 0.96)" style="fill:#00aeef"/><path d="M167.33,125.16c-.29.74-.86,1.85-5.6,5.29s-7.23,5.21-9.9,5.35c-1.35.07-5.15.27-7.74-2.64s-2-7-1.78-8.22c.39-2.54,1.32-3,3.16-6.74,2.76-5.6,1.69-6.61,3.63-9.2s6.5-6,10.57-4.52,5.77,7.21,7.14,12.11C167.68,119.69,168.4,122.43,167.33,125.16Z" transform="translate(0.5 0.96)" style="fill:#00aeef"/><path d="M120.7,136.44c-1.84-.69-4-2.47-4.1-4.24s1.57-2,3.44-4.9c1.72-2.68,1-3.51,2.38-5.41,1.8-2.52,5.71-4.84,8.38-3.41,2.88,1.54,3.41,7,2.39,10.48C131.58,134.5,125.29,138.17,120.7,136.44Z" transform="translate(0.5 0.96)" style="fill:#00aeef"/><path d="M129.38,158.19c-1.06-.16-1.19.34-3.33.48s-2.46-.33-3.92-.24a7.48,7.48,0,0,0-5.79,3.54,5.46,5.46,0,0,0-1,4.27c.59,2.33,3,3.59,4.27,4.27a12.13,12.13,0,0,0,7.19,1.2c2.11-.21,4.69-.47,6.38-2.64a6.47,6.47,0,0,0,1.29-5C134,161.18,131.6,158.53,129.38,158.19Z" transform="translate(0.5 0.96)" style="fill:#00aeef"/><path d="M594,118.13c.15-.92.53-2.36,5-7.89s6.86-8.37,9.79-9.46c1.5-.56,5.68-2.12,9.22.22s3.79,7.17,3.85,8.59c.15,3-.78,3.83-2,8.66-1.8,7.24-.38,8-2,11.57-1.65,3.79-5.86,9-10.73,8.78s-8.07-6-10.71-11.06C594.8,124.38,593.37,121.57,594,118.13Z" transform="translate(0.5 0.96)" style="fill:#00aeef"/><path d="M643.26,89.11c2.21.13,5,1.37,5.53,3.31.49,1.79-1.29,2.79-2.71,6.69-1.31,3.61-.35,4.3-1.43,6.9-1.42,3.46-5.24,7.43-8.54,6.77-3.55-.72-5.38-6.6-5.05-10.9C631.59,95.11,637.76,88.79,643.26,89.11Z" transform="translate(0.5 0.96)" style="fill:#00aeef"/><path d="M628.65,67.81c1.22-.19,1.25-.8,3.6-1.71s2.82-.5,4.42-1.11a10,10,0,0,0,5.63-6c.39-1.14,1.1-3.2.14-5.13-1.19-2.4-4.14-3-5.73-3.28a13.84,13.84,0,0,0-8.27,1.19c-2.3,1-5.12,2.17-6.5,5.19a8,8,0,0,0-.29,6.1C622.83,66.08,626.1,68.21,628.65,67.81Z" transform="translate(0.5 0.96)" style="fill:#00aeef"/><path d="M664.64,363.35c-.15.75-.5,1.93-4.34,6.35s-5.87,6.7-8.31,7.52c-1.24.41-4.72,1.58-7.58-.44s-2.91-6-2.93-7.16c0-2.45.75-3.13,1.86-7.07,1.68-5.91.53-6.56,1.92-9.47,1.46-3.07,5.07-7.23,9.06-6.93s6.47,5.19,8.51,9.39C664.11,358.19,665.21,360.53,664.64,363.35Z" transform="translate(0.5 0.96)" style="fill:#00aeef"/><path d="M623.3,385.88c-1.81-.17-4.07-1.26-4.45-2.87s1.13-2.26,2.41-5.43c1.17-2.93.4-3.52,1.35-5.64,1.27-2.8,4.52-6,7.21-5.33,2.91.68,4.25,5.57,3.86,9.1C633.06,381.26,627.82,386.29,623.3,385.88Z" transform="translate(0.5 0.96)" style="fill:#00aeef"/><path d="M634.74,403.79c-1,.13-1,.63-3,1.31s-2.33.34-3.67.79a8.21,8.21,0,0,0-4.79,4.78,5.39,5.39,0,0,0-.25,4.22c.91,2,3.31,2.56,4.62,2.85a11.39,11.39,0,0,0,6.83-.75c1.92-.74,4.27-1.65,5.48-4.1a6.52,6.52,0,0,0,.41-5C639.48,405.37,636.85,403.53,634.74,403.79Z" transform="translate(0.5 0.96)" style="fill:#00aeef"/></svg>
